<svg xmlns="http://www.w3.org/2000/svg" viewBox="0 0 595.5 842.25" version="1.2">
  <defs>
    <clipPath id="9S4HMXOuQa">
      <path d="M270 29.016h299.547V465H270zm0 0"/>
    </clipPath>
    <clipPath id="9S4HMXOuQb">
      <path d="M77 414h334v388.977H77zm0 0"/>
    </clipPath>
    <clipPath id="9S4HMXOuQc">
      <path d="M34.074 119H279v357H34.074zm0 0"/>
    </clipPath>
  </defs>
  <g clip-path="url(#9S4HMXOuQa)">
    <path d="M425.05 370.563c.266.511.829 1.097.762 1.585a43.606 43.606 0 01-2.59 10.207 43.776 43.776 0 01-4.945 9.297c-2.043 3-4.73 4.348-8.207 3.48-7.039-1.757-13.074-5.198-17.043-11.495a46.46 46.46 0 01-6.125-14.024c-3.472-14.375-9.91-27.68-15.242-41.351a1.996 1.996 0 00-1.293-1.211 1.74 1.74 0 00-.84.262c-.257.16-.46.37-.609.636-1.688 5.977-6.547 10.262-8.52 16.059-1.382 4.082-3.96 7.043-7.144 9.918-7.356 6.605-13.828 14.137-21.438 20.531-10.515 8.848-20.648 18.16-31.23 26.922-3.441 2.851-5.559 5.828-6.238 10.262a196.38 196.38 0 00-2.04 21.02c-.406 8.948-.855 17.866-1.261 26.839a6.844 6.844 0 01-1.774 4.352c-1.89 1.421-3.546.418-5.21-.512-1.668-5.004-1.223-10.16-.754-15.223 1.02-10.86 2.43-21.687 5.73-32.133 2.758-8.703 3.867-17.433 2.438-26.543-.844-5.367-.668-10.886-1.106-16.336-.355-4.468-.918-8.925-1.422-13.382-.25-2.223-.652-4.434-.847-6.664-.579-6.688-.918-13.383-1.668-20.063-1.313-11.742 1.738-22.926 6.023-33.777a14.77 14.77 0 011.43-2.785 14.785 14.785 0 014.437-4.38 14.798 14.798 0 012.809-1.39 37.892 37.892 0 018.34-2.11c4.086-.59 8.988 1.505 12.148-1.19 2.95-2.524 4.356-6.9 6.336-10.52 3.23-5.899 6.457-11.805 9.527-17.79 1.871-3.644 1.473-7.55.278-11.277a40.308 40.308 0 00-2.617-6.433 40.296 40.296 0 00-3.696-5.883 39.904 39.904 0 00-10.144-9.414 25.217 25.217 0 01-4.446-3.508c-4.898-5.043-9.921-9.976-14.96-14.89-1.829-1.79-3.844-3.387-5.727-5.106-3.996-3.688-7.906-7.418-11.602-11.45-7.297-7.96-10.261-17.632-12.465-27.706-1.53-6.942-.867-14.051-.949-21.098-.082-7.043.04-14.113-.297-21.156a234.032 234.032 0 011.543-40.309 234.525 234.525 0 018.414-39.449c1.024-3.36 2.32-6.637 3.653-9.883.722-1.762 3.27-2.492 4.93-1.531 5.878 3.398 11.351 7.273 14.917 13.273.164.274.317.559.477.836 6.894 12.25 14.977 23.88 20.234 37.086 1.871 4.719 4.778 9.051 7.465 13.406a89.392 89.392 0 018.836 18.118c1.457 4.25 3.121 8.425 4.543 12.68 2.856 8.527 5.375 17.062 5.887 26.195.445 7.98 2.094 15.882 3.062 23.836 1.168 9.668.239 19.195-2.043 28.648-2.34 9.672-4.449 19.371-6.609 29.074a89.826 89.826 0 00-1.32 7.555c.02.664.285 1.219.789 1.652.195.176.976-.215 1.433-.449a1.65 1.65 0 00.625-.723c5.567-10.804 11.32-21.52 16.594-32.468 1.813-3.758 3.574-7.504 5.715-11.082 1.98-3.286 3.621-6.766 5.488-10.121 1.176-2.098.914-4.329.918-6.567 0-11.262 1.055-22.383 4.422-33.219 1.719-5.535 3.746-10.847 6.777-15.828 3.157-5.191 5.723-10.718 8.68-16.047 4.082-7.37 9.61-13.504 15.852-19.18a68.776 68.776 0 0116.609-11.23c3.75-1.82 7.297-4.086 11.074-5.816 6.977-3.25 14.047-6.172 21.77-7.438 5.672-.93 11.203-2.742 16.789-4.187 8.676-2.25 17.5-4.082 26.031-6.875 17.059-5.55 34.418-10.332 50.414-18.766a29.252 29.252 0 015.375-2.11c4.18-1.237 7.54.99 8.5 5.376.711 3.238.313 6.465-.445 9.543-1.82 7.465-3.625 14.972-6.125 22.215a127.236 127.236 0 01-8.43 19.343c-10.926 19.98-24.723 37.414-45.242 48.496-8.777 4.75-16.7 10.79-24.535 16.848-7.719 5.988-16.336 10.137-25.176 13.903-7.07 3.003-14.293 5.613-21.438 8.433-9.949 3.934-20.132 6.473-30.949 5.746-6.804-.453-13.386.875-19.976 2.426a15.069 15.069 0 00-5.274 2.195 15.167 15.167 0 00-4.093 3.985c-.563.789-1.145 1.535-1.692 2.343-2.55 3.704-14.015 25.235-15.762 29.641a177.14 177.14 0 01-12.18 24.977c-3.738 6.328-6.741 13.097-10.042 19.675-1.153 2.29-2.106 4.688-3.38 6.899-4.155 7.234-4.241 7.387 4.13 9.426 9.398 2.293 18.886 3.351 28.613 1.91 7.906-1.168 15.824-2.133 23.797-3 14.121-1.531 28.687 6.746 34.516 19.719 1.562 3.484 3.375 6.953 3.738 10.882.148 1.59.449 3.203-.914 4.48h.101c-1.293-.675-1.476-2.007-1.8-3.226-1.293-4.664-3.372-8.98-5.618-13.273a19.91 19.91 0 00-4-5.371 20.004 20.004 0 00-5.55-3.758c-.457-.215-1.094-.04-1.649-.05.043.62.137 1.233.281 1.839.211.61.493 1.184.848 1.723 5.961 9.808 8.68 20.476 9.285 31.921.719 13.786.586 27.543-1.629 41.211a44.683 44.683 0 00-.468 4.786c.05.62.18 1.226.386 1.816.73-.547 1.649-.95 2.149-1.66a12.147 12.147 0 002.492-6.16 7.028 7.028 0 01.805-2.754 6.977 6.977 0 011.828-2.207zm-91.214-71.633l.418-.078c-7.895-4.774-16.512-6.532-25.649-6.164-3.828.152-6.726 1.921-8.793 5.042a25.025 25.025 0 00-2.769 5.043c-3.5 9.344-6.156 18.887-5.43 29.008.801 11.153.239 22.414 2.668 33.442.254.937.344 1.894.278 2.863-.993 8.379 1.203 16.566 1.48 24.86a6.802 6.802 0 00.168 1.906c.227.52.566.945 1.02 1.285.113.097.632-.125.859-.325 7.144-6.402 14.219-12.851 22.336-18.066a89.973 89.973 0 0015.293-12.293 89.94 89.94 0 0012.27-15.312c2.554-4.032 5.206-8.22 8.628-11.48 4.328-4.134 6.922-8.993 9.211-14.345 1.36-3.175.813-5.617-1.105-7.949a25.899 25.899 0 00-4.758-4.648c-4.145-3.008-8.363-5.946-12.762-8.582-4.066-2.45-8.469-4.219-13.363-4.207zm82.625-144.508c-1.66 3.617-4.625 6.031-7.54 8.582-5.312 4.656-10.081 9.848-13.464 16.144-.426.786-.809 1.848.215 2.551a2.23 2.23 0 001.754.418c6.402-2.281 13.273-2.12 19.77-3.84 14.55-3.836 29.093-7.824 43.628-11.648 6.559-1.727 12.602-4.473 18.508-7.8 6.988-3.934 13.379-8.724 20.035-13.126 3.453-2.285 6.918-4.8 9.672-7.855 8.352-9.274 17.356-17.97 24.7-28.153 8.624-11.976 16.956-24.101 23.062-37.613 2.52-5.57 4.8-11.281 5.258-17.36.472-6.39-.582-10.324-8.715-6.808-2.645 1.145-5.23 2.41-7.844 3.621-2.906 1.34-5.852 2.606-8.71 4.035-9.513 4.766-19.731 7.614-29.782 10.875-10.336 3.36-20.746 6.535-31.219 9.45-18.375 5.105-35.574 12.332-50.062 25.335a297.051 297.051 0 00-22.907 23.086c-2.113 2.364-3.632 5.192-5.101 8.09-3.172 6.317-5.617 12.84-7.934 19.508-2.992 8.57-4.316 17.356-5.336 26.277-.21 1.883.098 3.829.254 5.743.04.539.41 1.535.574 1.504a8.501 8.501 0 002.743-.633c1.609-.715 2.312-2.157 2.484-3.828a37.55 37.55 0 012.746-10.141c5.36-13.426 15.227-23.57 24.355-34.27 9.696-7.32 19.23-14.804 29.094-21.863 4.13-2.941 8.84-5.308 14.23-5.215.848 0 2.094.344 2.446.942.855 1.445-.781 1.53-1.457 1.53-7.074.438-12.809 3.978-18.23 8-6.926 5.142-13.715 10.478-20.418 15.927-10.485 8.55-18.606 19.047-24.793 31.054-.27.512-.168 1.23-.235 1.86.512-.196 1.117-.258 1.485-.594 4.472-4.082 8.894-8.25 13.359-12.355.941-.868 2.008-1.598 3.422-1.067zM286.145 37.926a14.617 14.617 0 00-1.07 2.55c-2.38 8.653-4.74 17.317-5.407 26.317-1.188 15.96-2.66 31.914-3.426 47.902-.441 9.243-.765 18.547 1.223 27.79 2.379 11.05 5.55 21.667 11.902 31.226 4.79 7.207 10.434 13.781 15.274 20.93 7.46 10.98 17.675 19.398 26.12 29.414.505.43 1.079.574 1.727.433.336-.101.614-.957.633-1.488.328-8.457-1.586-16.531-3.984-24.563-.782-2.601-2.094-5.199-1.438-8.093 3.285 1.351 2.637 4.594 3.41 7.144.563 1.84 1.215 3.653 1.832 5.469.29.836.43 1.95 1.563 1.938 1.308 0 1.367-1.208 1.316-2.114-.37-7.039-.293-14.144-1.336-21.086-1.808-12.039-4.164-23.996-9.773-35.03a2470.165 2470.165 0 01-5.617-11.142c-1.301-2.55-2.645-5.132-3.867-7.746-.235-.511 0-1.226 0-1.843.847.285 1.945.332 2.484.906a16.968 16.968 0 012.762 3.906c4.84 9.379 9.828 18.602 12.312 29.098 1.531 6.539 3.668 12.984 4.29 19.691 1.472 15.985 1.952 31.996 0 47.985a8.72 8.72 0 01-.29 1.902c-.765 2.133.488 3.664 1.426 5.332.48.855.879 1.793 2 1.562.297-.058.543-1.02.594-1.53 1.07-12.11 2.402-24.188 4.226-36.208.965-6.336 1.938-12.672 2.77-19.027 1.808-13.89 1.406-27.63-4.426-40.61-7.746-17.277-13.781-35.226-20.996-52.703-5.438-13.168-11.863-25.62-20.098-37.125-3.156-4.398-6.96-8.347-10.617-12.375-1.527-1.699-3.93-1.39-5.52 1.188zm100.5 261.672c.062-.106.128-.215.195-.32-1.969-1.048-3.934-2.11-5.922-3.13-.254-.128-.625 0-.945-.027.03.453-.118 1.145.129 1.332 3.742 2.969 7.808 5.52 10.21 9.945 2.399 4.426 5.395 8.711 7.75 13.243a64.224 64.224 0 016.297 17.054c.172.86-.16 1.36-.91 1.196a2.798 2.798 0 01-1.531-.813 4.518 4.518 0 01-.637-1.781c-2.148-8.5-6.457-15.942-11.097-23.277-4.48-7.075-10.461-11.696-18.551-14.293-4.711-1.532-8.746-.512-13.035.507-.786.192-.832.977-.27 1.504.922.875 1.832 1.774 2.82 2.551 6.997 5.723 13.426 12.012 17.684 20.012 4.219 7.902 8.29 15.894 12.023 24.039 4.672 10.18 8.864 20.582 13.426 30.812 1.426 3.196 3.332 6.188 5.14 9.192.47.785 1.384 1.441 2.442.969a2.28 2.28 0 001.27-1.215c.805-3.094 1.676-6.188 2.18-9.336a181.018 181.018 0 001.417-44.98c-1.05-11.704-5.613-22.302-12.273-31.919a10.01 10.01 0 00-4.41-3.527 54.19 54.19 0 00-9.219-2.453c-1.504-.297-3.574-.567-4.394 1.02-.973 1.894 1.14 2.515 2.285 3.429a19.04 19.04 0 011.531 1.129c.414.48.785.988 1.113 1.531-.511-.062-1.129 0-1.531-.215-1.102-.672-2.129-1.453-3.187-2.18zm12.91-184.075c.328-.585 0-.035-.297.512-3.797 7.39-7.426 14.875-11.434 22.149-2.55 4.597-3.66 9.527-4.91 14.48-.082.34.418.824.649 1.242.468-.402 1.167-.719 1.375-1.226 1.386-3.575 2.636-7.18 4.011-10.754 2.738-7.145 5.2-14.461 10.543-20.238 7.387-7.985 14.563-16.184 23.11-22.973 5.742-4.598 11.23-9.512 17.546-13.317.383-.226.38-1.117.559-1.703-.266 0-.59-.12-.793 0-6.266 3.196-12.871 5.887-18.703 9.746-8.324 5.508-14.79 13.168-21.656 22.082zm-124.653 42.723c.684 2.856 1.43 5.945 2.172 9.031 2.602 10.809 7.66 20.075 16.274 27.383 4.593 3.906 8.714 8.371 13.125 12.504.89.832 2.129 1.297 3.21 1.93.758-1.43-.824-1.809-1.265-2.676-1.754-3.406-4.145-6.356-6.57-9.328-4.625-5.66-8.899-11.613-13.399-17.383-3.754-4.809-6.87-9.934-8.851-15.742a57.598 57.598 0 00-2.735-6.074c-.093-.203-.511-.344-.754-.36-.238-.015-.418.23-1.207.715zm128.258 229.73c-1.215-.71-.695-.296-.105-.097a6.991 6.991 0 001.687.14c0-.62.27-1.347.04-1.855-2.352-5.238-4.594-10.523-7.227-15.629-3.356-6.547-6.692-13.062-9.188-20.015-1.531-4.18-3.793-8.086-5.773-12.094-.543-1.098-.961-2.309-2.38-2.742-1.23-.372-1.167.945.165 3.84 1.601 3.476 3.305 6.855 4.328 10.624 2.082 7.711 4.348 15.403 7.059 22.91 1.91 5.372 4.273 10.735 11.394 14.919zM556.672 80.384c-1.777 2.597-3.383 4.277-4.215 6.273-4.086 9.856-10.836 17.98-17.168 26.309-5.21 6.816-11.18 13.008-16.793 19.512-.3.359-.246 1.023-.355 1.53.312-.05.62-.136.918-.253.879-.387 1.707-.86 2.492-1.414 14.015-11.5 24.832-25.45 31.87-42.207 1.224-2.828 1.99-5.871 3.216-9.75zM448.219 175.87c.066-.3.082-.605.05-.91-.05-.2-.355-.512-.507-.512-3.137.625-6.29 1.16-9.38 1.965a1593.894 1593.894 0 00-25.07 6.813c-3.062.855-3.242 1.101-2.421 1.96 1.023 1.055 2.304.875 3.52.766 2.55-.23 5.1-.476 7.655-.922 8.907-1.57 16.942-5.8 25.473-8.52.266-.066.457-.417.68-.64zm0 0" fill="#afc4c0"/>
  </g>
  <g clip-path="url(#9S4HMXOuQb)">
    <path d="M284.063 463.344c1.664.918 3.32 1.926 5.21.511 1.114 1.352.954 2.95.961 4.56.094 11.23.22 22.444.383 33.64.102 6.5 2.145 12.61 4.008 18.742.512 1.719 2.262 1.937 3.773.605 9.84-8.68 19.559-17.472 29.606-25.925 4.45-3.758 8.164-8.168 12.016-12.407 6.464-7.09 12.636-14.449 18.847-21.77 11.184-13.179 20.688-27.648 32.047-40.675 2.934-3.363 5.95-6.41 10.441-5.48 4.829 1.02 6.899 4.921 8.036 9.722 2.117 8.91 1.683 17.84 1.175 26.797-.59 10.242-1.472 20.465-2.07 30.703a161.443 161.443 0 01-3.875 27.52 161.512 161.512 0 01-8.516 26.457 305.54 305.54 0 01-35.675 62.418 95.213 95.213 0 01-8.067 9.527c-13.5 14.152-26.355 28.824-37.12 45.285-4.329 6.637-5.977 13.403-5.177 20.93a163.105 163.105 0 006.266 31.086c.473 1.531 1.266 2.98 1.531 4.531 1.88 10.723 5.02 21.137 6.125 32.004.625 6.035 2.043 12.012 3.438 17.938 3.246 13.714 6.57 27.414 12.3 40.382.212.473-.085 1.215-.261 1.797-.059.215-.438.383-.703.48-.266.094-.711.255-.93.133-1.797-1.023-2.512-2.91-3.219-4.64-4.504-10.957-8.902-21.953-13.304-32.945-.457-1.2-.829-2.43-1.106-3.684-5.023-20.563-9.7-41.191-12.027-62.281a74.772 74.772 0 00-1.653-9.47c-1.066-4.386-1.996-8.804-1.632-13.304.359-4.496-1.723-7.336-5.145-9.574-2.953-1.937-5.887-3.914-8.969-5.617-4.62-2.48-8.39-5.895-11.312-10.246-5.852-8.836-10.387-18.18-13.02-28.68-2.957-11.793-2.988-23.61-1.91-35.351 1.02-11.415 3.36-22.813 9.422-32.973 1.148-1.926 2.363-3.871 3.113-5.961 1.114-3.102 2.907-5.5 5.223-7.867 8.168-8.364 8.394-10.094 4.465-21.176-.32-.91-.668-1.809-1.067-2.688-4.933-10.816-3.511-10.347-15.742-7.257-7.16 1.847-13.531 5.754-19.293 10.464a69.62 69.62 0 01-4.594 3.442 5.1 5.1 0 01-1.601.465c.195-.594.226-1.36.625-1.746 2.277-2.223 4.375-4.774 7.023-6.426 5.934-3.7 11.286-8.524 18.375-10.047.871-.191 1.293-.598.84-1.211-.39-.477-.89-.73-1.5-.77-3.328 0-6.27 1.31-8.969 3.098-6.402 4.238-12.859 8.406-19.07 12.91-11.133 8.067-22.07 16.407-33.18 24.504a52.984 52.984 0 01-7.496 4.297c-2.304 1.172-4.832 1.93-4.37 5.406.066.512-1.094 1.422-1.852 1.817a12.3 12.3 0 01-3.621 1.27c-10.403 1.698-20.735 3.062-31.403 1.421-11.652-1.754-22.285-6.027-32.34-11.668-6.695-3.754-12.25-9.262-17.074-15.316a103.346 103.346 0 01-7.336-10.102c-3.37-5.535-7.761-10.21-12.199-14.804-7.426-7.7-10.539-17.422-13.164-27.38-.613-2.331.676-4.406 2.824-5.613a13.775 13.775 0 017.43-1.625 78.27 78.27 0 0117.101 2.399c11.926 3.058 24.004 3.91 36.243 2.554 10.504-1.199 20.984-2.472 31.425-4.085 2.551-.391 5.079-.782 7.567-1.38a125.204 125.204 0 0121.836-3.206c7.37-.43 14.726-.211 22.058.656 7.325.848 14.66 1.469 21.868 3.16 6.335 1.48 12 3.93 16.808 8.602 3.895 3.777 8.371 6.933 11.793 11.23.508.652 1.617.852 2.512 1.293-.863-4.242-1.684-8.293-2.512-12.344 1.469.375 2.43.082 2.344-1.699-.063-1.258-.078-2.52-.117-3.773l1.918.824c.836.93 1.738 1.808 2.484 2.808.547.727.797 1.825 1.973 1.5.25-.07.37-1.02.36-1.59-.083-3.816-.286-7.628-.29-11.445-.043-1.238.434-2.46.688-3.672zm49.453 70.601c-1.426 3.664-2.766 5.543-4.504 6.848-2.918 2.184-4.797 5.102-6.742 8.039-6.364 9.668-11.93 19.66-15.028 30.961-1.18 4.285-2.55 8.578-3.984 12.762-4.801 13.867-5.719 28.078-4.969 42.554.14.953.41 1.864.813 2.739.046.125.511.207.703.152.195-.055.71-.254.75-.46.644-3.114 1.445-6.212 1.808-9.36 1.344-11.57 4.946-22.559 9.285-33.184a126.583 126.583 0 0118.047-30.586c4.352-5.531 9.051-10.797 13.246-16.441 11.274-15.16 22.61-30.293 31.766-46.895a.936.936 0 01.883-.168c.363.438.93 1.086.812 1.48-.898 3.063-1.53 6.188-3.437 8.895-8.43 12.117-16.383 24.598-25.336 36.32-7.02 9.188-13.879 18.47-20.2 28.118a157.867 157.867 0 00-11.081 20.199 149.98 149.98 0 00-7.344 19.812c-2.395 7.95-4.281 15.98-4.73 24.438-.333 6.203.687 12.875-2.954 18.672a2.06 2.06 0 000 1.84c.446.812 1.075 1.77 1.856 2.074.226.078.457.113.699.094.238-.016.465-.078.68-.192a1.738 1.738 0 00.871-1.07c.512-1.84 1.02-3.691 1.41-5.57a26.806 26.806 0 013.547-8.883c5.957-9.934 12.863-19.2 20.113-28.192 5.422-6.722 11.625-12.82 16.848-19.664a180.581 180.581 0 0115.894-17.957c9.7-9.648 16.809-21.074 23.356-32.808 5.133-9.192 8.43-19.215 10.515-29.735 3.758-18.886 6.176-37.98 8.309-57.097.957-8.57.875-17.27 1.07-25.914a31.442 31.442 0 00-2.043-12.25c-.867-2.23-2.23-2.633-4.523-1.532-3.016 1.43-5.074 3.797-7.074 6.356-6.125 7.82-11.371 16.223-18.07 23.668-6.844 7.605-13.618 15.23-20.891 22.46-9.32 9.235-18.09 18.997-26.825 28.802-9.78 10.98-20.53 21.082-30.085 32.3-12.125 14.227-20.926 29.88-21.743 49.094-.164 3.844-.273 7.7-.273 11.547a22.526 22.526 0 00.512 5.719c1.816 6.812 3.613 13.648 5.824 20.336 3.531 10.683 7.95 20.992 14.629 30.164.336.46 1.02 1.074 1.418 1.023 1.265-.242.847-1.484.765-2.21-.21-1.907-.691-3.782-1.086-5.661-3.062-14.64-3.347-29.41.801-43.73 3.64-12.543 6.719-25.282 12.332-37.301 4.153-8.883 9.805-16.5 15.621-24.125 1.72-2.352 4.328-3.781 7.739-6.535zm-200.602 5.617c7.43 5.907 16 9.403 25.012 11.895 3.062.852 6.328 1.207 9.316 2.297 2.899 1.055 5.649.93 8.496.297 12.66-2.805 24.559-7.48 35.145-15.028 6.242-4.445 12.05-9.5 18.222-14.05 8.25-6.09 16.586-12.059 25.012-17.91 4.196-2.926 8.54-5.657 13.543-7.145 1.77-.512 1.668-2.203.117-3.691a5.744 5.744 0 00-1.933-1.364 5.714 5.714 0 00-2.309-.48c-3.844 0-7.687-.067-11.527-.082-2.238 0-4.48 0-6.723.035-.816 0-1.246-.402-1.172-1.219.059-.273.203-.488.426-.648.758-.582 2.102-1.024 2.207-1.707.285-1.832-1.445-1.532-2.55-1.797a48.018 48.018 0 00-15.235-1.02c-.434.04-1.047-.57-1.39-1.02-.466-.593-.126-1.023.734-1.277 3.78-1.066 7.593-1.023 11.441-.386a305 305 0 0010.457 1.531c.508.059 1.05-.383 1.582-.594-.406-.512-.71-1.137-1.222-1.433-8.063-4.672-16.41-8.47-25.868-9.524-7.656-.851-15.28-1.152-22.968-.144-8.254 1.07-16.528 1.98-24.805 2.906-5.067.574-10.246.594-15.203 1.672-9.106 1.969-18.375 1.37-27.54 2.597-1.562.215-3.195-.105-4.796-.128-9.36-.122-18.418-2.247-27.52-4.082-2.511-.512-4.98-1.282-7.511-1.61-7.762-1.02-10.485 2.207-7.555 9.317 2.187 5.316 5.035 10.363 7.695 15.472 5.285 10.156 13.04 18.168 21.95 25.137 1.761 1.375 3.71 2.605 5.152 4.266 3.277 3.675 7.363 6.226 11.336 8.882zm151.445 2.336c-7.222 10.211-12.25 19.825-14.433 30.63-3.29 16.16-3.645 32.316.168 48.5a89.749 89.749 0 0010.996 26.41c2.515 4.152 6.312 7.148 9.695 10.523.582.582 1.797.617 2.738.707.383.039 1.184-.652 1.172-.672-1.504-2.816-2.882-5.726-4.68-8.351-2.367-3.457-4.144-7.184-5.91-10.957-4.222-9.004-6.859-18.54-9.898-27.965-3.762-11.672-2.875-23.325-1.102-35.09 2-13.313 9.266-24.36 15.415-35.88.714-1.335 2.195-2.25 3.242-3.429 4.226-4.742 8.43-9.508 12.613-14.293.164-.273.281-.562.352-.875-.45.047-.887.153-1.309.317-1.102.613-2.402 1.093-3.2 1.996-5.671 6.527-11.238 13.058-15.843 18.422zm43.235 88.164c1.261-.843 1.847-1.05 2.168-1.472 6.086-7.836 13.273-14.676 19.836-22.063 5.105-5.726 9.652-11.925 14.43-17.93.597-.75.511-1.19-.102-1.12a5.226 5.226 0 00-.906.261c-2.641.782-4.086 2.953-5.782 4.89-6.472 7.509-13.105 14.892-19.355 22.583-3.578 4.39-7.207 8.883-10.27 14.805zm-57.438-137.69c-2.52-2.61-3.926-3.876-5.105-5.329-5.653-6.98-12.942-11.055-21.762-12.477-.766-.125-1.945-.625-2.098.414-.074.508 1.176 1.493 1.993 1.754 5.539 1.793 10.136 5.227 14.957 8.29 3.468 2.206 7.011 4.3 12.015 7.347zm0 0" fill="#afc4c0"/>
  </g>
  <g clip-path="url(#9S4HMXOuQc)">
    <path d="M278.805 475.738l-1.918-.824c-.852-1.246-1.914-2.402-2.52-3.754-2.137-4.71-4.11-9.496-6.125-14.258-2.555-1.02-4.027-3.027-5.156-5.433-2.309-4.93-4.992-9.7-6.984-14.762-5.317-13.508-13.547-25.422-20.32-38.133a7.982 7.982 0 00-3.337-3.344c-8.168-4.597-16.625-8.07-26.273-8.21a172.124 172.124 0 01-19.125-1.57c-5.406-.677-10.613-2.325-15.734-4.266a233.218 233.218 0 01-28.008-12.516c-4.082-2.184-8.239-3.406-12.59-4.414-2.496-.578-5.035-.996-7.54-1.531-17.823-3.825-32.26-13.489-45.292-25.825a120.932 120.932 0 01-14.438-16.668c-4.886-6.687-8.726-14.164-12.726-21.437-9.114-16.598-12.52-34.93-16.04-53.211-.468-2.437.38-3.574 2.923-3.89 3.804-.508 7.656-1.114 11.464-1.09 2.582.066 5.055.632 7.41 1.699 9.66 4.246 19.227 8.722 28.825 13.129.883.379 1.734.828 2.55 1.34 13.598 9.074 29.098 13.168 44.747 16.613 3.949.87 7.746 3.453 12.113 1.972-.234-3.808-.473-7.613-.711-11.414 2.824 2.07 3.379 5.282 4.281 8.356a34.091 34.091 0 002.043 5.21c.149.298 1.16.235 1.766.212.246 0 .668-.367.68-.578.035-.907.183-1.91-.122-2.715-4.261-11.278-4.789-23.125-5.488-34.953-.152-2.555-.695-5.059-1.066-7.582-.133-.883-.614-1.07-1.375-.512-.227.172-.543.41-.574.644-.301 2.207-.81 4.422-.758 6.637.11 4.477.449 8.95.855 13.406.207 2.313.176 4.473-1.324 6.38-2.344-5.798-2.086-11.954-2.316-18.012-.336-8.98.582-17.868 2.011-26.75 1.938-12.055 5.367-23.688 8.676-35.368a101.335 101.335 0 003.992-23.617c.43-10.281 2.301-20.336 4.594-30.34a12.41 12.41 0 011.063-2.664c.632-1.289 1.902-2.043 3.12-1.578 5.422 2.145 10.383 5.047 13.829 9.945a60.685 60.685 0 013.574 5.708c6.512 11.77 13.309 23.386 18.441 35.851 1.825 4.438 3.664 8.879 5.106 13.438 4.508 14.039 8.855 28.117 11.168 42.742 2.312 14.629 3.316 29.297 1.183 44.008-.918 6.308-2.593 12.52-4.082 18.738-.968 4.043-2.043 8.035-2.34 12.223-.597 8.117.36 15.64 4.196 23.19 5.058 9.946 9.762 20.145 13.09 30.911 1.703 5.52 3.609 10.93 4.289 16.707.3 2.555 1.09 5.02 1.418 7.555.668 5.222 2.992 9.664 5.78 14.035 12.93 20.266 24.634 41.207 34.09 63.344 1.884 4.402 3.387 8.976 4.9 13.531.394 1.113.097 2.457.105 3.695zM177.633 296.297c-3.574-2.172-6.93-4.754-10.719-6.402a179.64 179.64 0 00-18.887-7.02c-7.336-2.266-14.875-3.879-22.28-5.95-12.352-3.452-24.423-7.613-35.763-13.78a444.839 444.839 0 00-24.855-12.489 57.875 57.875 0 00-16.574-4.781c-2.555-.352-5.207 1.719-5.293 4.297a17.67 17.67 0 00.508 5.707c1.308 4.289 2.609 8.637 4.523 12.672 5.078 10.719 9.555 21.726 15.738 31.898 6.98 11.496 13.88 23.086 23.95 32.27 4.726 4.308 8.984 9.136 14.433 12.652 15.313 9.867 31.922 15.914 50.086 17.703 5.102.508 10.305.73 15.215 2.04 14.246 3.738 28.336 8.015 41.832 14.066 6.125 2.746 12.426 5.152 18.664 7.656.914.367 1.98.441 2.578-.512.23-.355.027-1.25-.289-1.637-2.305-2.796-3.402-6.183-4.594-9.488-4.402-12.387-9.187-24.61-14.484-36.644-7.5-17.102-18.332-31.473-33.79-42.258zm-6.813-167.953c-3.32-2.754-6.55-1.582-7.765 2.812-.34 1.23-.961 2.469-.965 3.707-.031 10.282-1.531 20.356-3.496 30.43-.801 4.082-1.453 8.168-2.465 12.2-3.89 15.554-6.965 31.25-6.734 47.39.261 17.988 1.445 35.847 7.656 52.992.512 1.402 1.058 2.102 2.39 2.438 5.868 1.5 11.57 3.468 17.114 5.906 6.238 2.715 6.125 2.55 5.78-4.852-.472-9.914-.71-19.836-.858-29.762-.184-12.164-.184-24.34-.23-36.503.034-.961.167-1.907.401-2.84.028-.121.575-.188.88-.184.308.008.726.074.808.246.39.828.965 1.703.969 2.551 0 7.027-.227 14.055-.118 21.078.137 8.965.137 17.934.333 26.899a220.296 220.296 0 002.28 25.796c.298 2.125 1.055 3.614 2.766 4.707a41.948 41.948 0 0110.016 8.903c.586.719 1.531 1.148 2.313 1.695.78.547 1.933-.098 2.042-1.02.325-3.19.75-6.378.899-9.574.59-12.761.789-25.593 1.707-38.351.992-13.785.816-27.524.445-41.297a84.582 84.582 0 00-3.957-23.649c-6.261-19.644-15.418-37.937-26.469-55.316a26.954 26.954 0 00-5.742-6.387zm-15.976 241.66c.73.594 1.508 1.117 2.332 1.57 9.285 4.149 18.605 8.25 28.742 9.938 4.695.781 9.422 1.414 14.152 1.996 1.274.07 2.535-.012 3.79-.246.613-.117 1.206-.29 1.792-.508-.398-.457-.71-1.11-1.21-1.34-12.465-5.707-25.766-8.922-38.794-12.883-3.332-1.023-6.855-1.531-10.378-.66-.282.067-.723.352-.723.543.039.547.137 1.082.297 1.606zm55.972-85.762c.23-.789.512-1.699.754-2.617 5.235-18.96 4.278-38.004.715-57.078-.172-.922-.484-1.324-1.12-.774-.438.45-.665.989-.685 1.614-.058 4.156.086 8.312-.05 12.46-.485 14.376-1.059 28.747-1.578 43.118-.036.953.085 1.914.128 2.875.04.96.36 1.254.954 1.02.312-.169.605-.364.882-.587zM86.781 340.125l3.864 1.48c.21-1.847-1.5-2.253-2.477-3.152-1.168-1.078-2.828-1.707-3.77-2.922-8.03-10.336-16.57-20.332-22.843-31.906-3.961-7.285-7.5-14.824-11.262-22.25-.45-.844-.969-1.64-1.559-2.39-.129-.173-.566-.18-.843-.133-.278.046-.567.253-.57.41-.11 2.312.667 4.41 1.687 6.43 3.62 7.148 7.308 14.222 10.851 21.39 4.297 8.715 10.532 16.008 16.95 23.145 3.187 3.55 6.773 6.75 9.988 9.93zm100.555-43.617c.062.043-1.836-1.14-3.758-2.29a2.636 2.636 0 00-.937-.167c0 .433-.153 1.02.066 1.27 1.961 2.109 3.863 4.288 6.012 6.187 10.21 9.031 18.058 19.8 23.926 32.07a48.708 48.708 0 002.77 5.024c.241.367 1.089.351 1.648.507a2.278 2.278 0 000-.89c-2.254-5.254-4.329-10.625-6.848-15.77-4.828-9.996-11.977-18.094-22.852-25.91zm0 0" fill="#afc4c0"/>
  </g>
  <path d="M427.797 325.684c1.336.683 1.285 2.003 1.469 3.222 1.87 12.672-.075 25.16-1.938 37.633-.215 1.426-1.496 2.684-2.277 4.024h.238c-.883-.633-1.02-1.532-.805-2.493 2.551-12.855 3.141-25.824 2.332-38.879-.074-1.293.082-2.527 1.082-3.496zM268.219 456.902c2.043 4.762 4.011 9.547 6.125 14.258.61 1.352 1.672 2.508 2.523 3.754.04 1.254.055 2.516.117 3.77.086 1.78-.875 2.078-2.343 1.699-2.633-6.457-5.293-12.91-7.891-19.399-.66-1.687 0-3.066 1.469-4.082zm139.906-334.566a29.82 29.82 0 015.773-6.969 29.811 29.811 0 017.594-4.922 3.14 3.14 0 01.945-.11c-.085.595.047 1.438-.3 1.74-2.38 2.097-4.692 4.347-7.352 6.042-3.465 2.215-5.191 5.485-6.633 9.063-.476 1.183-.511 2.785-1.324 3.543-1.992 1.82-1.113 5.464-4.265 6.394-.825-3 .921-5.539 1.753-8.168.778-2.344 2.508-4.406 3.809-6.613zm8.434 32.426c2.87-5.59 7.773-9.133 12.757-12.528 2.07-1.406 3.739-3.77 6.739-3.336-.684 2.875-3.57 3.372-5.43 4.98-4.082 3.517-8.223 6.911-12.395 10.29-.402.328-1.18.184-1.78.254zm-120.59-5.235c3.812 4.989 6.176 10.907 9.187 16.465 1.106 2.043.864 3.524-.183 2.832a5.661 5.661 0 01-1.891-1.86c-3.203-5.808-6.332-11.655-9.473-17.507a2.922 2.922 0 01-.152-.934c.574.09 1.14.207 1.703.364.297.09.492.375.809.64zm37.867 149.403c1.812 1.02 1.8 2.582.883 4.047-.996 1.597-2.703 2.82-3.45 4.5-3.777 8.453-8.218 16.625-10.867 25.558-1.359 4.594-2.882 9.13-4.027 13.785-.352 1.45.047 3.352 2.55 1.899.7-.41 1.231.27.88.949-5.063 9.664-7.809 20.262-12.184 30.2a8.132 8.132 0 01-1.383 2.39c-.332.34-1.175.246-1.781.234-.227 0-.644-.316-.64-.512.03-1.59-.153-3.261.257-4.761 1.934-7.106 3.305-14.492 6.258-21.164 3.652-8.266 4.734-17.313 8.738-25.383 2.47-11.84 8.512-21.953 15.16-31.824zm-23.184 6.527c.414-.422.598-.723.868-.867.511-.266 1.242-.754 1.582-.574.52.402.761.93.73 1.586a7.734 7.734 0 01-.754 2.746c-5.492 11.156-7.656 23.004-7.441 35.351a32.883 32.883 0 01-.239 3.77c0 .168-.472.34-.753.406-.282.066-.688 0-.715-.113a28.74 28.74 0 01-.586-2.766c-2.176-13.441.586-26.035 6.41-38.148.258-.493.558-.953.898-1.391zm-14.683 254.066l5.945-10.66c.957-1.718 2.332-2.984 4.125-3.789.328-.086.633-.035.918.149.129.078.168.511.07.726a30.522 30.522 0 01-1.312 2.504c-4.68 7.953-9.48 15.828-14.02 23.883-2.656 4.707-4.742 9.629-4.68 15.312 0 2.461-1.023 4.938-1.636 7.395-.04.172-.508.309-.824.32-.196 0-.551-.21-.578-.367-.196-1.246-.547-2.516-.438-3.746.785-9.332 3.195-18.16 8.527-26.035 1.633-2.403 3.258-4.75 3.903-5.719zM176.95 489.027c.07-.27.05-.66.222-.785 1.023-.762-.508-1.074.644-.594 6.602 2.79 13.782 1.961 20.57 3.446.188.043.352.484.403.765a.784.784 0 01-.203.672 1.61 1.61 0 01-.863.383 46.723 46.723 0 01-19.68-2.453c-.496-.168-.738-.945-1.094-1.434zm28.277-133.972c-8.704-14.364-17.57-26.035-30.325-34.766-13.894-9.512-28.629-16.848-44.746-21.547-.508-.148-.875-.832-1.215-1.328-.336-.496 1.383-1.457 2.13-1.191 9.312 3.336 19.179 5.23 27.562 10.91 2.11 1.426 4.504 2.433 6.804 3.574 6.688 3.25 12.368 7.836 17.981 12.68 9.098 7.855 16.047 17.304 22.289 27.433 4.54 7.356 9.406 14.504 14.086 21.77a17.131 17.131 0 011.652 3.418c.278.777-.144 1.273-.824 1.273-.305 0-.73.04-.89-.129a35.085 35.085 0 01-2.489-2.847c-8.637-11.23-18.375-21.297-30.46-28.91-3.509-2.211-6.774-4.805-10.126-7.258-.207-.149-.199-.594-.289-.907.278 0 .594-.156.805-.058.89.351 1.738.781 2.555 1.281 6.68 4.418 13.335 8.883 20.02 13.309 1.28.847 2.667 1.601 5.48 3.293zm-40.731-76.789c-.262-.246-.644-.434-.676-.664-1.136-8.497-2.215-16.989-2.191-25.59 0-6.219 2.18-11.82 4.598-17.36.449-1.02 1.832-1.644 2.824-2.394a.903.903 0 01.879-.031c.394.37 1.023.93.93 1.293-.313 1.53-.583 3.187-1.337 4.527-4.402 7.867-4.71 16.285-3.953 25.016.414 4.73.14 9.527.149 14.292a.904.904 0 01-.352.7c-.277.12-.57.191-.87.21zm0 0" fill="#afc4c0"/>
</svg>
